<svg width="36" height="36" viewBox="0 0 36 36" fill="none" xmlns="http://www.w3.org/2000/svg">
<rect width="36" height="36" rx="18" fill="white"/>
<path d="M24.1364 12.6818L23.6291 20.8841C23.4998 22.9794 23.4352 24.0275 22.9091 24.7811C22.6494 25.1535 22.315 25.4678 21.9273 25.704C21.1443 26.1818 20.0945 26.1818 17.9951 26.1818C15.8924 26.1818 14.841 26.1818 14.0564 25.7032C13.6684 25.4665 13.3341 25.1516 13.0745 24.7786C12.5493 24.0243 12.4854 22.9745 12.3594 20.8759L11.8636 12.6818M10.6364 12.6818H25.3636M21.3185 12.6818L20.7597 11.5298C20.3891 10.764 20.2034 10.3819 19.8834 10.143C19.8124 10.0901 19.7371 10.043 19.6584 10.0023C19.3042 9.81818 18.8787 9.81818 18.0286 9.81818C17.1564 9.81818 16.7204 9.81818 16.3595 10.0096C16.2798 10.0523 16.2037 10.1016 16.1321 10.1569C15.8089 10.4048 15.6281 10.8016 15.2664 11.5944L14.7706 12.6818M15.9545 21.6818V16.7727M20.0454 21.6818V16.7727" stroke="#999999" stroke-width="1.22727" stroke-linecap="round" stroke-linejoin="round"/>
</svg>
